<svg width="24" height="24" viewBox="0 0 24 24" fill="none" xmlns="http://www.w3.org/2000/svg">
<path fill-rule="evenodd" clip-rule="evenodd" d="M1 5C1 4.47454 1.10353 3.95424 1.30467 3.4688C1.50582 2.98337 1.80063 2.54233 2.17228 2.17087C2.54393 1.79941 2.98512 1.50481 3.47065 1.30391C3.95619 1.10301 4.47654 0.999738 5.002 1H18.998C19.5235 0.999738 20.0438 1.10301 20.5293 1.30391C21.0149 1.50481 21.4561 1.79941 21.8277 2.17087C22.1994 2.54233 22.4942 2.98337 22.6953 3.4688C22.8965 3.95424 23 4.47454 23 5V19C23 20.0609 22.5786 21.0783 21.8284 21.8284C21.0783 22.5786 20.0609 23 19 23H5C3.93913 23 2.92172 22.5786 2.17157 21.8284C1.42143 21.0783 1 20.0609 1 19V5ZM20 12C20 14.1217 19.1571 16.1566 17.6569 17.6569C16.1566 19.1571 14.1217 20 12 20C9.87827 20 7.84344 19.1571 6.34315 17.6569C4.84285 16.1566 4 14.1217 4 12C4 9.87827 4.84285 7.84344 6.34315 6.34315C7.84344 4.84286 9.87827 4 12 4C14.1217 4 16.1566 4.84286 17.6569 6.34315C19.1571 7.84344 20 9.87827 20 12ZM12 14C12.5304 14 13.0391 13.7893 13.4142 13.4142C13.7893 13.0391 14 12.5304 14 12C14 11.4696 13.7893 10.9609 13.4142 10.5858C13.0391 10.2107 12.5304 10 12 10C11.4696 10 10.9609 10.2107 10.5858 10.5858C10.2107 10.9609 10 11.4696 10 12C10 12.5304 10.2107 13.0391 10.5858 13.4142C10.9609 13.7893 11.4696 14 12 14Z" fill="#E9E4EC"/>
</svg>
