<svg width="24" height="24" viewBox="0 0 24 24" fill="none" xmlns="http://www.w3.org/2000/svg">
<path d="M17.276 5.46983C17.711 5.62983 18 6.04483 18 6.50883V17.4898C18 17.9538 17.71 18.3688 17.276 18.5288C16.4524 18.8324 15.5476 18.8324 14.724 18.5288C14.5117 18.4505 14.3285 18.3091 14.199 18.1235C14.0696 17.9379 14.0001 17.7171 14 17.4908V6.50983C14 6.04583 14.29 5.63083 14.724 5.46983C15.5476 5.16631 16.4524 5.16631 17.276 5.46983ZM9.276 5.46983C9.711 5.62983 10 6.04483 10 6.50883V17.4898C10 17.9538 9.71 18.3688 9.276 18.5288C8.45241 18.8324 7.54759 18.8324 6.724 18.5288C6.5117 18.4505 6.32849 18.3091 6.19904 18.1235C6.0696 17.9379 6.00013 17.7171 6 17.4908V6.50983C6 6.04583 6.29 5.63083 6.724 5.46983C7.54759 5.16631 8.45241 5.16631 9.276 5.46983Z" fill="#E9E4EC"/>
</svg>
