<svg width="24" height="24" viewBox="0 0 24 24" fill="none" xmlns="http://www.w3.org/2000/svg">
<path d="M19.2655 13.5159C19.497 13.3367 19.6844 13.1069 19.8133 12.8442C19.9422 12.5814 20.0092 12.2926 20.0092 11.9999C20.0092 11.7072 19.9422 11.4183 19.8133 11.1556C19.6844 10.8928 19.497 10.663 19.2655 10.4839C16.2681 8.16449 12.921 6.33635 9.34953 5.06786L8.69653 4.83586C7.44853 4.39286 6.12953 5.23686 5.96053 6.52586C5.48842 10.1599 5.48842 13.8398 5.96053 17.4739C6.13053 18.7629 7.44853 19.6069 8.69653 19.1639L9.34953 18.9319C12.921 17.6634 16.2681 15.8352 19.2655 13.5159Z" fill="#E9E4EC"/>
</svg>
