<svg width="24" height="24" viewBox="0 0 24 24" fill="none" xmlns="http://www.w3.org/2000/svg">
<path d="M5.25042 7C5.25042 6.80109 5.32943 6.61032 5.47009 6.46967C5.61074 6.32902 5.8015 6.25 6.00042 6.25C6.19933 6.25 6.3901 6.32902 6.53075 6.46967C6.6714 6.61032 6.75042 6.80109 6.75042 7V17C6.75042 17.1989 6.6714 17.3897 6.53075 17.5303C6.3901 17.671 6.19933 17.75 6.00042 17.75C5.8015 17.75 5.61074 17.671 5.47009 17.5303C5.32943 17.3897 5.25042 17.1989 5.25042 17V7ZM9.54642 10.945C8.85642 11.479 8.85642 12.521 9.54642 13.055C11.6845 14.7093 14.072 16.0132 16.6194 16.918L17.0854 17.084C17.9554 17.392 18.8754 16.804 18.9924 15.906C19.3294 13.3129 19.3294 10.6871 18.9924 8.094C18.8744 7.196 17.9554 6.608 17.0854 6.917L16.6194 7.082C14.072 7.98678 11.6845 9.29071 9.54642 10.945Z" fill="#E9E4EC"/>
</svg>
