<svg width="24" height="24" viewBox="0 0 24 24" fill="none" xmlns="http://www.w3.org/2000/svg">
<path d="M18.7496 7C18.7496 6.80109 18.6706 6.61032 18.5299 6.46967C18.3893 6.32902 18.1985 6.25 17.9996 6.25C17.8007 6.25 17.6099 6.32902 17.4693 6.46967C17.3286 6.61032 17.2496 6.80109 17.2496 7V17C17.2496 17.1989 17.3286 17.3897 17.4693 17.5303C17.6099 17.671 17.8007 17.75 17.9996 17.75C18.1985 17.75 18.3893 17.671 18.5299 17.5303C18.6706 17.3897 18.7496 17.1989 18.7496 17V7ZM14.4536 10.945C15.1436 11.479 15.1436 12.521 14.4536 13.055C12.3155 14.7093 9.92804 16.0132 7.38058 16.918L6.91458 17.084C6.04458 17.392 5.12458 16.804 5.00758 15.906C4.67065 13.3129 4.67065 10.6871 5.00758 8.094C5.12558 7.196 6.04458 6.608 6.91458 6.917L7.38058 7.082C9.92804 7.98678 12.3155 9.29071 14.4536 10.945Z" fill="#E9E4EC"/>
</svg>
